<svg class="svg-icon" style="width: 1em; height: 1em;vertical-align: middle;fill: currentColor;overflow: hidden;" viewBox="0 0 1024 1024" version="1.1" xmlns="http://www.w3.org/2000/svg"><path d="M544.7 703.8v-320c-35.3 0-64 26-64 58.2v203.7c0 32.1 28.6 58.1 64 58.1zM576.7 383.8h288v44.5h-288zM576.7 556.3h288v64h-288zM576.7 460.3h288v64h-288zM960.7 645.6V442c0-32.1-28.7-58.2-64-58.2v320c35.4 0 64-26 64-58.2zM640.7 351.8h160c17.7 0 32-14.3 32-32v-64h-224v64c0 17.7 14.3 32 32 32zM288.7 223.8h64v-64h-64v-64h-64v64h-64v64h64z"  /><path d="M832.7 799.8v-64h32v-83.5h-288v83.5h32v64h-320v-160h64v-64h32v32h64v-128h-64v32h-32v-64h-64v-128h64v-64h-192v64h64v128h-32v192h32v96h-128c-35.3 0-64 28.7-64 64v128h960.1v-128H832.7z m-64 0h-96v-64h96v64z"  /><path d="M160.7 639.8v-192c-35.3 0-64 28.7-64 64h-64v64h64c0 35.4 28.6 64 64 64z"  /></svg>